<?xml version="1.0" encoding="UTF-8" standalone="no"?>
<!-- Created with Inkscape (http://www.inkscape.org/) -->

<svg
   width="26.458332mm"
   height="26.458334mm"
   viewBox="0 0 26.458332 26.458334"
   version="1.1"
   id="svg5"
   inkscape:version="1.2.2 (732a01da63, 2022-12-09)"
   sodipodi:docname="mining game svgs.svg"
   xml:space="preserve"
   inkscape:export-filename="pick.svg"
   inkscape:export-xdpi="96"
   inkscape:export-ydpi="96"
   xmlns:inkscape="http://www.inkscape.org/namespaces/inkscape"
   xmlns:sodipodi="http://sodipodi.sourceforge.net/DTD/sodipodi-0.dtd"
   xmlns="http://www.w3.org/2000/svg"
   xmlns:svg="http://www.w3.org/2000/svg"><sodipodi:namedview
     id="namedview7"
     pagecolor="#ffffff"
     bordercolor="#000000"
     borderopacity="0.25"
     inkscape:showpageshadow="2"
     inkscape:pageopacity="0.0"
     inkscape:pagecheckerboard="0"
     inkscape:deskcolor="#d1d1d1"
     inkscape:document-units="mm"
     showgrid="true"
     inkscape:zoom="4.7572176"
     inkscape:cx="54.338486"
     inkscape:cy="57.491589"
     inkscape:window-width="1920"
     inkscape:window-height="1051"
     inkscape:window-x="-9"
     inkscape:window-y="-9"
     inkscape:window-maximized="1"
     inkscape:current-layer="layer1"><inkscape:grid
       type="xygrid"
       id="grid132" /></sodipodi:namedview><defs
     id="defs2" /><g
     inkscape:label="Layer 1"
     inkscape:groupmode="layer"
     id="layer1"><g
       id="g6200"
       transform="matrix(-0.45123305,0,0,0.37565837,33.887606,-4.8956243)"
       style="fill:#b97636;fill-opacity:1"><path
         d="M 74.918373,46.553432 C 74.482132,45.62014 64.000694,23.615479 43.636555,16.594847 35.490059,13.785907 27.961409,12.839116 21.258932,13.780698 c -3.780907,0.531023 -3.066946,11.113828 -2.550133,11.161344 7.295662,0.666727 14.215056,2.114768 20.565508,4.304723 19.001419,6.54504 31.749115,19.286667 32.201134,19.708546 0.452026,0.421879 2.696922,1.014595 3.065483,0.783981 0.368561,-0.230617 0.816132,-2.247604 0.377449,-3.18586 z"
         id="path6208"
         style="fill:#1c1610;fill-opacity:1" /><path
         id="path6206"
         d="m 46.45292,13.032138 c -1.215032,-0.0043 -2.369485,0.694164 -2.908203,1.857422 1.009043,0.247885 4.201372,1.584417 5.880859,2.427735 0.581154,-1.593973 -0.176252,-3.377832 -1.757812,-4.039063 -0.397581,-0.166223 -0.809834,-0.244668 -1.214844,-0.246094 z m -9.333985,17.191407 -20.40625,48.810547 c -0.680918,1.628653 0.08668,3.500925 1.714844,4.181641 1.628168,0.680717 3.500725,-0.08619 4.181641,-1.714844 L 43.126748,32.424717 c -1.600084,-0.729011 -4.815244,-1.929409 -6.007813,-2.201172 z"
         style="fill:#b97636;fill-opacity:1" /></g></g></svg>
