<?xml version="1.0" encoding="UTF-8" standalone="no"?>
<!-- Created with Inkscape (http://www.inkscape.org/) -->

<svg
   width="26.458332mm"
   height="26.458334mm"
   viewBox="0 0 26.458332 26.458334"
   version="1.1"
   id="svg5"
   inkscape:version="1.2.2 (732a01da63, 2022-12-09)"
   sodipodi:docname="mining game svgs.svg"
   xml:space="preserve"
   inkscape:export-filename="pick_icon.svg"
   inkscape:export-xdpi="96"
   inkscape:export-ydpi="96"
   xmlns:inkscape="http://www.inkscape.org/namespaces/inkscape"
   xmlns:sodipodi="http://sodipodi.sourceforge.net/DTD/sodipodi-0.dtd"
   xmlns="http://www.w3.org/2000/svg"
   xmlns:svg="http://www.w3.org/2000/svg"><sodipodi:namedview
     id="namedview7"
     pagecolor="#ffffff"
     bordercolor="#000000"
     borderopacity="0.25"
     inkscape:showpageshadow="2"
     inkscape:pageopacity="0.0"
     inkscape:pagecheckerboard="0"
     inkscape:deskcolor="#d1d1d1"
     inkscape:document-units="mm"
     showgrid="true"
     inkscape:zoom="4.7572176"
     inkscape:cx="54.338486"
     inkscape:cy="57.491589"
     inkscape:window-width="1920"
     inkscape:window-height="1051"
     inkscape:window-x="-9"
     inkscape:window-y="-9"
     inkscape:window-maximized="1"
     inkscape:current-layer="layer1"><inkscape:grid
       type="xygrid"
       id="grid132" /></sodipodi:namedview><defs
     id="defs2" /><g
     inkscape:label="Layer 1"
     inkscape:groupmode="layer"
     id="layer1"><g
       id="g6330"
       transform="matrix(0.37657747,0,0,0.53107855,-5.5771123,-13.324761)"><path
         d="m 62.48,25.09 -21,13.33 a 0.91,0.91 0 0 0 -0.37,0.24 l -7.37,4.68 a 1,1 0 0 0 -0.37,0.23 l -13.08,8.31 -0.28,0.19 -5.2,14.24 27,8.46 v 0 L 42.25,74.91 85.07,47.71 80,30.57 Z m 0.28,2.18 14.05,4.41 L 66.8,38 45.4,38.26 Z M 37.23,56.83 23.23,52.42 34.5,45.26 55.85,45 Z M 59.06,43 l -21.4,0.26 4.53,-2.88 21.4,-0.26 z m -37.62,11 15.13,4.75 4,13.58 L 17.41,65 Z m 21.24,18.26 -4.13,-13.9 40,-25.44 4.13,13.91 z"
         id="path6352" /></g></g></svg>
