<svg xmlns="http://www.w3.org/2000/svg" xmlns:xlink="http://www.w3.org/1999/xlink" version="1.1" x="0px" y="0px" viewBox="0 0 512 640" style="enable-background:new 0 0 512 512;" xml:space="preserve"><style type="text/css">
	.st0{fill:none;}
</style><g><path class="st0" d="M213.37,166.18c0,4.29-3.47,7.77-7.77,7.77l-16.81,0.03c-11.91,0.04-23.53,0.07-35.15-0.06l-42.09-0.54   c-20.71-0.29-41.4-0.58-62.1-0.73l0.58,0.4c21.71,15.15,44.14,30.82,66.62,45.52c7.87,5.14,17.28,7.55,28.15,7.24   c10.65-0.33,24.53-0.55,38.21,0.8c12.53,1.26,25.88,2.99,38.67,7.13c12.21,3.95,17.6,10.89,19.95,16.02   c2.43,5.28,4.23,14.2-0.99,26.74c-4.96,11.91-13.58,28.94-31.1,39.23c-8.95,5.26-18.1,10.16-27.53,15.21l-8.62,4.64v17.76h3.66   c12.82,0.04,25.32,0.03,37.85-0.14c6.78-9.37,16.96-16.09,29.49-19.87c22.63-6.83,47.01-7.09,74.57-0.79   c13.96,3.18,24.85,10.13,32.39,20.67c12.26,0.13,24.51,0.11,36.77,0.11h2.03v-18c-3.38-1.8-6.74-3.53-10.04-5.25   c-10.59-5.49-20.57-10.67-30.11-17.08c-16.26-10.91-25.86-27.21-27.77-47.14c-2.11-22.09,7.51-40.4,29.43-55.98   c29.58-21.01,64.26-32.86,106.03-36.23c8.12-0.65,9.71-5.08,10.12-8.53v-6.48H213.37V166.18z"/><path d="M475.58,143.11H205.61c-4.29,0-7.77,3.47-7.77,7.77v7.55l-9.09,0.02c-11.85,0.02-23.38,0.05-34.92-0.06l-42.06-0.54   c-22.24-0.31-44.46-0.61-66.7-0.76c-3.78-0.17-7.43,1.95-9.86,3.38c-0.7,0.4-1.37,0.82-2.05,1.14c-1.88,0.86-3.32,2.44-4.04,4.38   c-0.71,1.94-0.61,4.09,0.26,5.95c0.23,0.47,0.39,1,0.56,1.53c0.8,2.35,2.02,5.91,5.32,8.21l5.87,4.1   c21.8,15.22,44.34,30.96,67.02,45.79c10.57,6.93,23.24,10.25,37.15,9.75c10.77-0.35,23.45-0.52,36.16,0.74   c11.67,1.17,24.03,2.76,35.42,6.45c5.52,1.78,9.09,4.39,10.63,7.74c2.05,4.44,0.47,10.22-1.23,14.27   c-6.6,15.87-14.2,25.69-24.6,31.81c-8.78,5.15-17.76,9.96-27.02,14.92l-12.76,6.88c-2.5,1.36-4.05,3.97-4.05,6.82v30.16   c0,4.29,3.47,7.77,7.77,7.77l11.41,0.01c3.73,0.01,7.43,0.01,11.13,0.01c9.04,0,17.99-0.02,26.94-0.14   c4.67-0.06,9.01-2.94,11.21-5.75c5.6-7.06,12.97-11.9,22.56-14.77c19.96-6.02,41.75-6.2,66.62-0.53   c10.47,2.39,18.16,7.29,23.51,14.97c2,2.9,5.72,6.01,10.12,6.07c12.98,0.14,25.92,0.13,39,0.13l9.78-0.01   c4.29,0,7.77-3.47,7.77-7.77V330.7c0-2.84-1.55-5.45-4.05-6.82c-4.85-2.65-9.66-5.14-14.38-7.58   c-10.18-5.29-19.8-10.27-28.61-16.19c-12.26-8.23-19.51-20.58-20.95-35.72c-1.58-16.3,5.73-29.6,22.97-41.84   c27.21-19.35,59.36-30.28,98.27-33.41c13.96-1.12,23.07-9.66,24.38-22.84c0.02-0.25,0.03-0.51,0.03-0.76v-14.66   C483.34,146.58,479.87,143.11,475.58,143.11z M467.81,165.12c-0.41,3.45-2,7.88-10.12,8.53c-41.78,3.37-76.45,15.22-106.03,36.23   c-21.92,15.58-31.54,33.89-29.43,55.98C324.14,285.8,333.74,302.1,350,313c9.54,6.41,19.52,11.59,30.11,17.08   c3.31,1.71,6.66,3.45,10.04,5.25v18h-2.03c-12.26,0-24.51,0.02-36.77-0.11c-7.54-10.54-18.43-17.49-32.39-20.67   c-27.56-6.3-51.94-6.04-74.57,0.79c-12.53,3.78-22.71,10.5-29.49,19.87c-12.53,0.17-25.03,0.17-37.85,0.14h-3.66v-17.76l8.62-4.64   c9.44-5.05,18.58-9.96,27.53-15.21c17.52-10.29,26.14-27.32,31.1-39.23c5.22-12.55,3.41-21.46,0.99-26.74   c-2.35-5.13-7.74-12.07-19.95-16.02c-12.79-4.14-26.14-5.87-38.67-7.13c-13.68-1.35-27.56-1.13-38.21-0.8   c-10.88,0.31-20.28-2.09-28.15-7.24c-22.48-14.7-44.92-30.37-66.62-45.52l-0.58-0.4c20.71,0.15,41.4,0.44,62.1,0.73l42.09,0.54   c11.62,0.13,23.24,0.1,35.15,0.06l16.81-0.03c4.29,0,7.77-3.47,7.77-7.77v-7.54h254.43V165.12z"/></g><text x="0" y="527" fill="#000000" font-size="5px" font-weight="bold" font-family="'Helvetica Neue', Helvetica, Arial-Unicode, Arial, Sans-serif">Created by Creative Studio</text><text x="0" y="532" fill="#000000" font-size="5px" font-weight="bold" font-family="'Helvetica Neue', Helvetica, Arial-Unicode, Arial, Sans-serif">from the Noun Project</text></svg>