<?xml version="1.0" encoding="UTF-8" standalone="no"?>
<!-- Created with Inkscape (http://www.inkscape.org/) -->

<svg
   width="26.473148mm"
   height="26.47315mm"
   viewBox="0 0 26.473148 26.47315"
   version="1.1"
   id="svg5"
   inkscape:version="1.2.2 (732a01da63, 2022-12-09)"
   sodipodi:docname="mining game svgs.svg"
   xml:space="preserve"
   xmlns:inkscape="http://www.inkscape.org/namespaces/inkscape"
   xmlns:sodipodi="http://sodipodi.sourceforge.net/DTD/sodipodi-0.dtd"
   xmlns="http://www.w3.org/2000/svg"
   xmlns:svg="http://www.w3.org/2000/svg"><sodipodi:namedview
     id="namedview7"
     pagecolor="#ffffff"
     bordercolor="#000000"
     borderopacity="0.25"
     inkscape:showpageshadow="2"
     inkscape:pageopacity="0.0"
     inkscape:pagecheckerboard="0"
     inkscape:deskcolor="#d1d1d1"
     inkscape:document-units="mm"
     showgrid="true"
     inkscape:zoom="4.7572176"
     inkscape:cx="54.338486"
     inkscape:cy="57.491589"
     inkscape:window-width="1920"
     inkscape:window-height="1051"
     inkscape:window-x="-9"
     inkscape:window-y="-9"
     inkscape:window-maximized="1"
     inkscape:current-layer="layer1"><inkscape:grid
       type="xygrid"
       id="grid132" /></sodipodi:namedview><defs
     id="defs2" /><g
     inkscape:label="Layer 1"
     inkscape:groupmode="layer"
     id="layer1"
     transform="translate(0.0148165)"><g
       id="g6063"
       inkscape:export-filename="g6063.svg"
       inkscape:export-xdpi="96"
       inkscape:export-ydpi="96"><path
         id="path5011"
         style="fill:#212121;fill-opacity:1;stroke:#000000;stroke-width:0.0296333;stroke-linejoin:round;stroke-miterlimit:15.6;stroke-dasharray:none;stroke-opacity:1;paint-order:fill markers stroke"
         d="M 8.9622437,3.3543172 2.5512655,9.7751139 0,21.276221 6.4678223,26.458333 H 16.631026 l 3.887101,-2.594673 2.576071,-5.160409 -1.218014,-6.100403 c -0.07265,0.004 -0.144443,0.01534 -0.216524,0.02481 v -0.03307 c 0,-0.08329 0.0068,0.0083 -0.02946,-0.08837 -0.01258,-0.03356 0,-0.119363 0,-0.157613 v -0.393257 c 0,-0.08521 0.0063,-0.170302 0,-0.255282 -0.02286,-0.309258 -0.02015,-0.01783 -0.02015,-0.206706 0,-0.02614 6.18e-4,-0.03611 5.17e-4,-0.03876 -0.0016,0.0055 -0.0087,0.02749 -0.02997,-0.07906 -0.0045,-0.02249 0.003,-0.04599 0,-0.06873 -0.01222,-0.09164 -0.03412,-0.08791 -0.05891,-0.187068 -0.01046,-0.04181 -0.0092,-0.08582 -0.01964,-0.127641 -0.0189,-0.07557 -0.0711,-0.140564 -0.08837,-0.216524 -0.008,-0.03515 0.0095,-0.07322 0,-0.108004 -0.0108,-0.03962 -0.04366,-0.06987 -0.05891,-0.108004 -0.048,-0.120003 0.0018,-0.05589 -0.01964,-0.17725 -0.0092,-0.05208 -0.102921,-0.223855 -0.108521,-0.235645 -0.0307,-0.06499 -0.06109,-0.13039 -0.08837,-0.1968867 -0.01267,-0.030869 -0.02448,-0.062231 -0.03617,-0.094051 L 21.64364,12.62972 c -0.149899,0.02053 -0.298711,0.04835 -0.4439,0.09198 l 1.174088,5.885429 -2.248958,4.505151 -13.1470013,-9.570992 2.34611,-9.4035601 10.6344933,2.3652303 0.288871,1.4474569 0.273368,0.1648478 c 0.08577,0.051531 0.173822,0.097923 0.26355,0.1400432 v 0.31781 c 0,0.025805 -0.0062,0.06405 0,0.088883 0.0025,0.010054 0.0085,0.019172 0.0098,0.029455 0.0037,0.029496 -0.003,0.058872 0,0.088367 0.002,0.019836 0.0078,0.039075 0.0098,0.058911 0.0013,0.013044 -0.0041,0.026838 0,0.039274 0.01252,0.037567 0.03709,0.070953 0.04961,0.1085205 0.0041,0.012435 -0.0041,0.026838 0,0.039274 0.006,0.018129 0.02443,0.030657 0.02946,0.049093 0.0052,0.018971 -0.0043,0.039715 0,0.058911 0.0026,0.011536 0.01391,0.019127 0.01964,0.029456 0.01067,0.019217 0.02251,0.038055 0.02946,0.058911 0.0096,0.028664 0.01468,0.058564 0.01964,0.088367 0.0016,0.0097 -0.0039,0.020419 0,0.029456 0.0065,0.015063 0.02426,0.024245 0.02946,0.039791 0.0052,0.015547 -0.0027,0.03293 0,0.049093 0.0094,0.056456 0.0249,0.1115115 0.03927,0.1669149 0.02247,0.086663 0.05032,0.1746975 0.08165,0.2599325 L 20.789945,8.2573771 c 0.07846,0.036639 0.158219,0.070934 0.239262,0.1007691 L 20.544482,5.9303874 Z M 8.4382446,4.8503499 6.2662842,13.555245 0.91880697,20.30367 3.1781006,10.117729 Z M 6.5830607,14.103015 19.650997,23.616646 16.42277,25.77207 H 6.709668 L 0.97668457,21.179069 Z" /><g
         id="g1456"
         transform="matrix(0.2942823,0,0,0.29398148,-1.4849485,-1.4699073)"><g
           id="g1434"><path
             d="m 79.918,36.377 c -2.321,0 -4.488,-0.656 -6.345,-1.774 1.118,1.857 1.773,4.023 1.772,6.344 0.001,2.322 -0.654,4.486 -1.772,6.344 1.857,-1.118 4.023,-1.773 6.344,-1.774 2.321,10e-4 4.486,0.656 6.343,1.774 -1.117,-1.857 -1.771,-4.022 -1.771,-6.343 -0.001,-2.321 0.654,-4.487 1.772,-6.344 -1.858,1.117 -4.023,1.773 -6.343,1.773 z"
             id="path1420" /><path
             d="m 82.338,17.776 c -0.245,0.985 -0.745,1.919 -1.513,2.687 -0.768,0.769 -1.702,1.269 -2.687,1.513 0.984,0.245 1.918,0.745 2.686,1.513 0.769,0.768 1.269,1.702 1.514,2.686 0.244,-0.985 0.745,-1.918 1.512,-2.687 0.769,-0.769 1.702,-1.268 2.687,-1.513 -0.984,-0.244 -1.918,-0.745 -2.686,-1.513 -0.769,-0.766 -1.269,-1.7 -1.513,-2.686 z"
             id="path1424" /><path
             d="m 66.854,33.151 c -0.769,-0.768 -1.268,-1.702 -1.513,-2.687 -0.245,0.985 -0.744,1.918 -1.513,2.686 -0.768,0.769 -1.702,1.269 -2.687,1.513 0.984,0.245 1.918,0.745 2.687,1.513 0.769,0.768 1.268,1.702 1.513,2.686 0.245,-0.985 0.745,-1.918 1.513,-2.687 0.769,-0.769 1.702,-1.268 2.687,-1.513 -0.985,-0.243 -1.918,-0.743 -2.687,-1.511 z"
             id="path1426" /><path
             d="m 65.342,44.333 c -1.502,0.001 -2.903,-0.422 -4.105,-1.147 0.724,1.202 1.147,2.603 1.147,4.104 10e-4,1.502 -0.424,2.905 -1.147,4.106 1.202,-0.724 2.604,-1.147 4.105,-1.147 1.501,0 2.902,0.423 4.105,1.147 -0.724,-1.202 -1.148,-2.604 -1.148,-4.105 0,-1.502 0.425,-2.903 1.148,-4.104 -1.203,0.724 -2.604,1.147 -4.105,1.146 z"
             id="path1428" /><circle
             cx="80.195"
             cy="7.1149998"
             r="2.115"
             id="circle1430" /><circle
             cx="92.845001"
             cy="57.890999"
             r="2.109"
             id="circle1432" /></g></g><path
         style="fill:#606060;fill-opacity:1;stroke:#000000;stroke-width:0.23375;stroke-linejoin:round;stroke-miterlimit:15.6;stroke-dasharray:none;stroke-opacity:1;paint-order:fill markers stroke"
         d="M 14.748383,88.759867 C 8.8416372,84.048604 4.029138,80.090038 4.05394,79.96305 4.0787421,79.836064 8.7808786,73.825463 14.503132,66.606159 L 24.907229,53.480152 49.292374,71.221453 c 13.411832,9.757714 24.455138,17.805843 24.540681,17.88473 0.08554,0.07889 -2.538351,1.96057 -5.830881,4.181522 l -5.986415,4.038093 H 43.751839 25.48792 Z"
         id="path4477"
         transform="scale(0.26458333)" /><path
         style="fill:#898989;fill-opacity:1;stroke:#000000;stroke-width:0.23375;stroke-linejoin:round;stroke-miterlimit:15.6;stroke-dasharray:none;stroke-opacity:1;paint-order:fill markers stroke"
         d="M 3.890716,75.46428 C 3.9770769,75.059632 5.8655873,66.513947 8.0874058,56.47387 L 12.127076,38.219186 21.77629,28.568261 c 5.307069,-5.308009 9.676478,-9.569136 9.7098,-9.469171 0.06785,0.203547 -7.635147,31.214118 -7.918983,31.880087 -0.141865,0.332861 -8.354571,10.781366 -18.9978773,24.169792 L 3.733696,76.200004 Z"
         id="path4479"
         transform="scale(0.26458333)" /><path
         style="fill:#b3b3b3;fill-opacity:1;stroke:#000000;stroke-width:0.0166475;stroke-linejoin:round;stroke-miterlimit:15.6;stroke-dasharray:none;stroke-opacity:1;paint-order:fill markers stroke"
         d="M 51.429001,69.245662 C 37.980911,59.439145 26.878837,51.35715 26.757724,51.285673 c -0.186158,-0.109865 0.455498,-2.849437 4.149977,-17.718485 2.4036,-9.673688 4.390217,-17.628994 4.414704,-17.678456 0.02449,-0.04946 8.825544,1.864589 19.557901,4.253448 10.732358,2.388858 19.72192,4.389157 19.976806,4.445109 l 0.463427,0.101729 0.403548,2.036288 c 0.757259,3.821102 0.565939,3.370835 1.718249,4.043821 l 1.017081,0.594008 0.04808,1.261853 c 0.05522,1.44927 0.127843,1.415439 -1.396913,0.650704 -0.467739,-0.234594 -0.883513,-0.426533 -0.923941,-0.426533 -0.04043,0 0.197811,0.543722 0.52942,1.208273 1.193755,2.392303 1.652573,5.64688 1.170701,8.304243 -0.203295,1.121101 -0.877073,3.023419 -1.406126,3.969997 -0.207682,0.371586 -0.377604,0.696387 -0.377604,0.72178 0,0.02539 0.618708,-0.242498 1.374908,-0.595316 1.453502,-0.678153 3.223929,-1.215606 3.568626,-1.083334 0.182376,0.06998 0.674687,2.142151 0.534148,2.248261 -0.0288,0.02175 -0.386806,0.10105 -0.795562,0.176233 -0.673231,0.123827 -0.739633,0.171677 -0.705368,0.508291 0.02081,0.204378 1.003681,5.244927 2.184171,11.20122 L 84.4103,70.33843 80.220117,78.720363 C 77.915518,83.330426 75.996216,87.09631 75.955003,87.088994 75.913792,87.08168 64.87709,79.05218 51.429001,69.245662 Z M 63.339297,51.213048 c 2.395319,-1.093947 5.269234,-1.093201 7.430365,0.0019 0.415319,0.210459 0.782882,0.354897 0.816804,0.320974 0.03392,-0.03392 -0.10335,-0.423023 -0.305051,-0.864666 -1.104057,-2.417426 -1.077208,-5.326793 0.06991,-7.575328 0.390769,-0.76597 0.380036,-0.784465 -0.264851,-0.456406 -2.377813,1.209616 -5.49749,1.243816 -7.783652,0.08533 -0.850646,-0.431055 -1.026025,-0.393197 -0.673176,0.145318 0.132906,0.20284 0.414561,0.883904 0.6259,1.513474 0.684608,2.039411 0.469813,4.632321 -0.549768,6.636572 -0.155954,0.306567 -0.256832,0.557395 -0.224174,0.557395 0.03266,0 0.41862,-0.164066 0.857694,-0.364591 z m 4.004292,-14.164845 c 0.580184,-1.777499 2.130442,-3.233571 4.225959,-3.969213 0.240893,-0.08457 0.128189,-0.173537 -0.594202,-0.469075 -1.667962,-0.682383 -2.899967,-1.923295 -3.586471,-3.612402 l -0.334626,-0.823328 -0.165426,0.442343 c -0.771513,2.062986 -1.87584,3.224868 -3.813728,4.012485 -0.679871,0.27632 -0.801786,0.371282 -0.570034,0.44401 1.649606,0.517671 3.221835,1.811711 3.934883,3.238646 0.246116,0.492523 0.447484,0.985143 0.447484,1.094712 0,0.402603 0.279462,0.183169 0.456161,-0.358178 z"
         id="path5221"
         transform="scale(0.26458333)" /></g></g></svg>
