<?xml version="1.0" encoding="UTF-8" standalone="no"?>
<!-- Created with Inkscape (http://www.inkscape.org/) -->

<svg
   width="26.458332mm"
   height="26.458334mm"
   viewBox="0 0 26.458332 26.458334"
   version="1.1"
   id="svg5"
   xml:space="preserve"
   xmlns:inkscape="http://www.inkscape.org/namespaces/inkscape"
   xmlns:sodipodi="http://sodipodi.sourceforge.net/DTD/sodipodi-0.dtd"
   xmlns="http://www.w3.org/2000/svg"
   xmlns:svg="http://www.w3.org/2000/svg"><sodipodi:namedview
     id="namedview7"
     pagecolor="#ffffff"
     bordercolor="#000000"
     borderopacity="0.25"
     inkscape:showpageshadow="2"
     inkscape:pageopacity="0.0"
     inkscape:pagecheckerboard="0"
     inkscape:deskcolor="#d1d1d1"
     inkscape:document-units="mm"
     showgrid="false" /><defs
     id="defs2" /><g
     inkscape:label="Layer 1"
     inkscape:groupmode="layer"
     id="layer1"><g
       id="g152"
       transform="matrix(0.93692962,0,0,0.94649267,-1.8684264,-1.9419348)"><path
         d="m 27.29,8.12 1.42,-1.41 a 1,1 0 0 0 0,-1.42 l -2,-2 a 1,1 0 0 0 -1.42,0 L 23.83,4.75 A 15.35,15.35 0 0 0 9.64,3.07 1,1 0 0 0 9.7,5 17.69,17.69 0 0 1 16.32,8.78 C 16.56,9 16.79,9.23 17,9.45 v 2.19 L 2.29,26.29 a 1,1 0 0 0 0,1.42 l 2,2 a 1,1 0 0 0 1.42,0 L 20.41,15 h 2.19 c 0.23,0.21 0.44,0.44 0.66,0.67 a 16,16 0 0 1 3.74,7.54 1,1 0 0 0 0.88,0.78 H 28 A 1,1 0 0 0 28.91,23.4 15.36,15.36 0 0 0 27.29,8.12 Z M 26,5.41 26.59,6 25.99,6.59 25.7,6.28 25.4,6 Z M 5,27.59 4.41,27 18,13.41 18.59,14 Z m 23,-8 A 17.06,17.06 0 0 0 24.73,14.32 C 24.39,13.95 24.04,13.59 23.66,13.25 A 1,1 0 0 0 23,13 H 20.41 L 19,11.59 V 9 A 1,1 0 0 0 18.73,8.32 C 18.41,7.97 18.06,7.61 17.68,7.26 A 19.1,19.1 0 0 0 13.17,4.19 13,13 0 0 1 28,19.6 Z M 23.71,8.29 a 1,1 0 0 1 0,1.42 l -2,2 a 1,1 0 0 1 -1.42,0 1,1 0 0 1 0,-1.42 l 2,-2 a 1,1 0 0 1 1.42,0 z"
         id="path134" /></g></g></svg>
