<?xml version="1.0" encoding="UTF-8" standalone="no"?>
<!-- Created with Inkscape (http://www.inkscape.org/) -->

<svg
   width="26.458332mm"
   height="26.458334mm"
   viewBox="0 0 26.458332 26.458334"
   version="1.1"
   id="svg5"
   inkscape:version="1.2.2 (732a01da63, 2022-12-09)"
   sodipodi:docname="mining game svgs.svg"
   xml:space="preserve"
   xmlns:inkscape="http://www.inkscape.org/namespaces/inkscape"
   xmlns:sodipodi="http://sodipodi.sourceforge.net/DTD/sodipodi-0.dtd"
   xmlns="http://www.w3.org/2000/svg"
   xmlns:svg="http://www.w3.org/2000/svg"><sodipodi:namedview
     id="namedview7"
     pagecolor="#ffffff"
     bordercolor="#000000"
     borderopacity="0.25"
     inkscape:showpageshadow="2"
     inkscape:pageopacity="0.0"
     inkscape:pagecheckerboard="0"
     inkscape:deskcolor="#d1d1d1"
     inkscape:document-units="mm"
     showgrid="true"
     inkscape:zoom="4.7572176"
     inkscape:cx="54.338486"
     inkscape:cy="57.491589"
     inkscape:window-width="1920"
     inkscape:window-height="1051"
     inkscape:window-x="-9"
     inkscape:window-y="-9"
     inkscape:window-maximized="1"
     inkscape:current-layer="layer1"><inkscape:grid
       type="xygrid"
       id="grid132" /></sodipodi:namedview><defs
     id="defs2" /><g
     inkscape:label="Layer 1"
     inkscape:groupmode="layer"
     id="layer1"><g
       id="g6200"
       transform="matrix(0.45122993,0,0,0.37565908,-7.4290384,-4.8955938)"><path
         d="M 74.918373,46.553432 C 74.482132,45.62014 64.000694,23.615479 43.636555,16.594847 35.490059,13.785907 27.961409,12.839116 21.258932,13.780698 c -3.780907,0.531023 -3.066946,11.113828 -2.550133,11.161344 7.295662,0.666727 14.215056,2.114768 20.565508,4.304723 19.001419,6.54504 31.749115,19.286667 32.201134,19.708546 0.452026,0.421879 2.696922,1.014595 3.065483,0.783981 0.368561,-0.230617 0.816132,-2.247604 0.377449,-3.18586 z"
         id="path6208" /><path
         d="m 49.426098,17.318241 c 0.581154,-1.593974 -0.177212,-3.377889 -1.758774,-4.03912 -1.590324,-0.664893 -3.405239,0.05874 -4.123531,1.609753 1.009044,0.247885 4.202816,1.586048 5.882305,2.429367 z"
         id="path6206" /><path
         d="M 37.119541,30.22335 16.712158,79.034714 c -0.680919,1.628654 0.08747,3.500183 1.715637,4.1809 1.62817,0.680718 3.499987,-0.08698 4.180903,-1.715637 L 43.126804,32.423794 C 41.526718,31.694782 38.312111,30.495113 37.119541,30.22335 Z"
         id="path6204" /></g></g></svg>
