<?xml version="1.0" encoding="UTF-8" standalone="no"?>
<!-- Created with Inkscape (http://www.inkscape.org/) -->

<svg
   width="26.458332mm"
   height="26.45833mm"
   viewBox="0 0 26.458332 26.45833"
   version="1.1"
   id="svg5"
   xml:space="preserve"
   inkscape:export-filename="craft_icon.svg"
   inkscape:export-xdpi="96"
   inkscape:export-ydpi="96"
   xmlns:inkscape="http://www.inkscape.org/namespaces/inkscape"
   xmlns:sodipodi="http://sodipodi.sourceforge.net/DTD/sodipodi-0.dtd"
   xmlns="http://www.w3.org/2000/svg"
   xmlns:svg="http://www.w3.org/2000/svg"><sodipodi:namedview
     id="namedview7"
     pagecolor="#ffffff"
     bordercolor="#000000"
     borderopacity="0.25"
     inkscape:showpageshadow="2"
     inkscape:pageopacity="0.0"
     inkscape:pagecheckerboard="0"
     inkscape:deskcolor="#d1d1d1"
     inkscape:document-units="mm"
     showgrid="false" /><defs
     id="defs2" /><g
     inkscape:label="Layer 1"
     inkscape:groupmode="layer"
     id="layer1"><g
       style="clip-rule:evenodd;fill-rule:evenodd;stroke-linejoin:round;stroke-miterlimit:2"
       id="g529"
       transform="matrix(0.26458333,0,0,0.26458333,38.179908,43.903316)"><path
         id="path502"
         d="m -72.574571,-165.93379 c -0.5516,0.002 -1.104766,0.0183 -1.655823,0.051 h -0.01282 c -2.349873,0.15434 -4.236552,1.99365 -4.445236,4.33927 -0.0913,0.93477 -0.189121,2.04852 -0.271725,2.95938 -0.01522,0.17391 -0.129819,0.32355 -0.297202,0.37789 -1.058638,0.33479 -2.086864,0.75886 -3.078115,1.26103 -0.0065,0.004 -0.01261,0.006 -0.01695,0.008 -0.152166,0.0783 -0.334417,0.0599 -0.467018,-0.0509 -0.0065,-0.004 -0.01478,-0.0126 -0.0213,-0.017 -0.697789,-0.57173 -1.541134,-1.27863 -2.267182,-1.88515 -1.806423,-1.5152 -4.446127,-1.48433 -6.219944,0.0722 -0.0087,0.009 -0.02109,0.0167 -0.02972,0.0255 -0.81952,0.74129 -1.598326,1.52407 -2.330895,2.34797 -0.0044,0.004 -0.0063,0.008 -0.0085,0.0126 -1.552089,1.76955 -1.582957,4.40315 -0.07217,6.20748 0.595621,0.72608 1.310907,1.58637 1.897833,2.28854 0.113037,0.13261 0.135622,0.32325 0.05519,0.47978 -0.510842,0.98476 -0.940819,2.01325 -1.286451,3.06976 0,0.006 -0.0021,0.008 -0.0043,0.0128 -0.05217,0.16304 -0.193403,0.27776 -0.365132,0.29297 -0.0065,0.002 -0.01674,0.004 -0.02548,0.004 -0.897776,0.0913 -1.994586,0.18913 -2.938014,0.27174 -2.347698,0.20869 -4.193255,2.09535 -4.347585,4.44967 0,0.013 -0.004,0.0252 -0.004,0.0382 -0.0543,1.10216 -0.0525,2.20538 0.0126,3.30755 v 0.0128 c 0.15434,2.34995 1.99783,4.23674 4.343354,4.44543 0.934733,0.0913 2.048433,0.18913 2.959253,0.27174 0.173903,0.0152 0.319265,0.13406 0.37361,0.30145 0.334764,1.05868 0.763089,2.08697 1.265235,3.07825 0.0044,0.006 0.0063,0.0126 0.0085,0.017 0.07826,0.15218 0.05991,0.33443 -0.05095,0.46704 -0.0044,0.007 -0.01261,0.0104 -0.01695,0.017 -0.571709,0.69782 -1.278605,1.54122 -1.885094,2.2673 -1.515113,1.8065 -1.484245,4.45056 0.07219,6.22446 l 0.02548,0.0255 c 0.741264,0.81955 1.523983,1.60263 2.347851,2.33523 0.0044,0.004 0.0041,0.006 0.0085,0.009 1.769469,1.55216 4.407195,1.58302 6.211445,0.0722 0.726047,-0.59565 1.582044,-1.31096 2.28418,-1.89791 0.132601,-0.11305 0.323265,-0.13564 0.479778,-0.0552 0.98473,0.51086 2.013174,0.93662 3.069637,1.28227 0.0065,0 0.01261,0.006 0.01696,0.008 0.163035,0.0522 0.277724,0.19341 0.292941,0.36516 0.0022,0.007 0,0.0167 0,0.0255 0.0913,0.8978 0.18912,1.99043 0.271725,2.93389 0.208684,2.34781 2.099515,4.19767 4.453736,4.35203 h 0.03822 c 1.102114,0.0543 2.205293,0.0525 3.307407,-0.0128 h 0.01282 c 2.349873,-0.15435 4.236575,-1.99365 4.445259,-4.33929 0.0913,-0.93476 0.18912,-2.04852 0.271724,-2.95937 0.01522,-0.17392 0.134058,-0.32354 0.30144,-0.37789 1.058638,-0.33478 2.086865,-0.75884 3.078116,-1.26101 0.0065,-0.004 0.0084,-0.006 0.01274,-0.008 0.152166,-0.0783 0.334439,-0.0599 0.46704,0.051 0.0065,0.004 0.0147,0.0126 0.02122,0.017 0.697788,0.57173 1.541156,1.27865 2.267203,1.88517 1.806423,1.5152 4.450367,1.48431 6.224183,-0.0722 l 0.02548,-0.0255 c 0.81952,-0.7413 1.598326,-1.52407 2.330895,-2.34797 0.0043,-0.004 0.0063,-0.004 0.0085,-0.008 1.55209,-1.76955 1.587218,-4.40739 0.07643,-6.21172 -0.59562,-0.72608 -1.315147,-1.58637 -1.902071,-2.28854 -0.113037,-0.13261 -0.135622,-0.31902 -0.05519,-0.47554 0.510842,-0.98478 0.940819,-2.01327 1.286452,-3.06978 0,-0.007 0.0021,-0.0126 0.0042,-0.017 0.05217,-0.16303 0.197642,-0.27773 0.369371,-0.29294 0.0065,-0.002 0.01254,-0.004 0.02124,-0.004 0.897776,-0.0913 1.994586,-0.18914 2.938014,-0.27174 2.347698,-0.20869 4.19325,-2.09535 4.34759,-4.44967 0,-0.013 0.0042,-0.0252 0.0042,-0.0382 0.05434,-1.10217 0.05248,-2.20537 -0.01274,-3.30753 v -0.0128 c -0.154338,-2.34997 -1.997825,-4.23676 -4.343329,-4.44545 -0.934731,-0.0913 -2.044193,-0.18913 -2.955013,-0.27174 -0.173903,-0.0152 -0.323525,-0.13406 -0.377871,-0.30145 -0.334763,-1.05869 -0.758828,-2.08696 -1.260974,-3.07825 -0.0043,-0.007 -0.01054,-0.008 -0.01272,-0.0128 -0.07826,-0.15218 -0.05567,-0.33869 0.05519,-0.4713 0.0043,-0.006 0.0084,-0.0104 0.01274,-0.017 0.571708,-0.69782 1.278583,-1.54122 1.885072,-2.2673 1.515135,-1.8065 1.484267,-4.45056 -0.07217,-6.22446 -0.0087,-0.009 -0.01254,-0.0167 -0.02124,-0.0255 -0.741264,-0.81955 -1.523983,-1.60263 -2.347851,-2.33523 -0.0043,-0.004 -0.0084,-0.006 -0.01274,-0.008 -1.769468,-1.55213 -4.407217,-1.58302 -6.211466,-0.0722 -0.726026,0.59564 -1.582044,1.3152 -2.28418,1.90215 -0.132601,0.11304 -0.323243,0.13138 -0.479757,0.051 -0.984729,-0.51087 -2.013173,-0.93659 -3.069637,-1.28225 -0.0065,0 -0.0084,-0.002 -0.01274,-0.004 -0.163035,-0.0522 -0.281986,-0.19765 -0.297202,-0.36939 -0.0022,-0.006 0,-0.0126 0,-0.0213 -0.0913,-0.89779 -0.18912,-1.99467 -0.271725,-2.93814 -0.208684,-2.34997 -2.099515,-4.19767 -4.453736,-4.35201 h -0.03395 c -0.551057,-0.0272 -1.104223,-0.0401 -1.655823,-0.0382 z m 0.01283,4.34777 c 0.468996,-0.001 0.937949,0.008 1.405314,0.0297 0.208684,0.0196 0.375306,0.18401 0.39487,0.39487 0.08478,0.95651 0.184664,2.07182 0.275963,2.98486 0.178251,1.90433 1.475094,3.52316 3.298908,4.10576 0.819521,0.26738 1.633325,0.60193 2.411543,1.00627 1.710777,0.88477 3.78649,0.65308 5.26467,-0.58169 0.693441,-0.5804 1.538874,-1.28299 2.271442,-1.88515 0.0043,-0.004 0.0084,-0.0126 0.01274,-0.017 0.158687,-0.13261 0.386935,-0.13043 0.543449,0 0.708657,0.62825 1.37149,1.29152 1.999717,1.98283 0.136949,0.16086 0.134775,0.39534 0,0.55621 v 0.004 c -0.615184,0.73477 -1.334406,1.59257 -1.914809,2.30125 -1.221672,1.47172 -1.442878,3.53727 -0.564686,5.23942 0.389109,0.76739 0.724047,1.5747 0.989249,2.41165 v 0.004 c 0.584752,1.83477 2.213771,3.14005 4.131059,3.31179 0.899951,0.0804 1.998848,0.17826 2.942275,0.27174 0.0065,0 0.01469,-0.002 0.02122,0 0.204337,0.0174 0.366806,0.17778 0.386371,0.38213 0.05434,0.94346 0.05197,1.88025 0.0085,2.81503 -0.01956,0.2087 -0.184011,0.37954 -0.39487,0.3991 -0.956448,0.0848 -2.067475,0.18043 -2.980468,0.27174 -1.904245,0.17826 -3.523004,1.47939 -4.105581,3.30329 -0.267377,0.81955 -0.601903,1.62916 -1.006228,2.4074 v 0.004 c -0.884735,1.71084 -0.657312,3.7824 0.577403,5.26065 0.580403,0.69347 1.287191,1.53893 1.889332,2.27154 0.0043,0.004 0.0084,0.0126 0.01274,0.017 0.132601,0.15869 0.134688,0.38695 0.0043,0.54347 -0.628226,0.70868 -1.291473,1.36731 -1.98274,1.99557 -0.160861,0.13695 -0.399587,0.13901 -0.560448,0.004 v -0.004 c -0.734721,-0.61521 -1.5925,-1.33023 -2.301157,-1.91066 -1.47166,-1.22172 -3.537112,-1.44718 -5.239194,-0.56893 -0.767328,0.38913 -1.578871,0.72832 -2.415782,0.99354 -1.834683,0.58477 -3.139916,2.20962 -3.311646,4.12697 v 0.004 c -0.08043,0.9 -0.178251,1.99892 -0.271725,2.94239 0,0.006 0.0022,0.0104 0,0.017 -0.01739,0.20434 -0.182033,0.36679 -0.38637,0.38636 -0.943405,0.0543 -1.880158,0.0562 -2.81489,0.0128 -0.208685,-0.0196 -0.375284,-0.184 -0.394848,-0.39486 -0.08478,-0.95651 -0.180425,-2.07183 -0.271725,-2.98486 -0.17825,-1.90433 -1.479332,-3.51892 -3.303146,-4.10152 -0.81952,-0.2674 -1.629085,-0.60193 -2.407303,-1.00628 h -0.0043 c -1.710777,-0.88477 -3.782251,-0.65731 -5.260431,0.57745 -0.693442,0.58043 -1.538874,1.28726 -2.271443,1.88942 -0.0043,0.004 -0.01261,0.008 -0.01695,0.0128 -0.158687,0.13261 -0.386935,0.13043 -0.543449,0 -0.708657,-0.62825 -1.371491,-1.29153 -1.999718,-1.98283 -0.136948,-0.16086 -0.134774,-0.39534 0,-0.55621 v -0.004 c 0.615185,-0.73478 1.334407,-1.59259 1.91481,-2.30128 1.221672,-1.47172 1.447139,-3.533 0.568925,-5.23516 -0.389109,-0.76738 -0.728308,-1.57896 -0.993511,-2.41591 v -0.004 c -0.584751,-1.83476 -2.213771,-3.13581 -4.131058,-3.30755 -0.899951,-0.0804 -1.998826,-0.17826 -2.942253,-0.27173 -0.0065,0 -0.01478,-0.002 -0.0213,-0.004 -0.204337,-0.0174 -0.366784,-0.17778 -0.386349,-0.38213 -0.05434,-0.94347 -0.05197,-1.88025 -0.0085,-2.81501 0.01956,-0.2087 0.18399,-0.3753 0.394848,-0.39487 0.95647,-0.0848 2.067496,-0.18469 2.98049,-0.276 1.904245,-0.17826 3.523005,-1.47939 4.105581,-3.30329 0.267377,-0.81956 0.601903,-1.62915 1.006228,-2.40741 0.884735,-1.71085 0.657291,-3.78665 -0.577424,-5.2649 -0.580403,-0.69344 -1.287191,-1.53894 -1.889332,-2.27153 -0.0044,-0.004 -0.0085,-0.0126 -0.01282,-0.017 -0.132602,-0.15869 -0.134667,-0.38696 -0.0041,-0.54348 0.628226,-0.70869 1.291473,-1.36731 1.98274,-1.99556 0.160861,-0.13695 0.399565,-0.13902 0.560426,-0.004 v 0.004 c 0.734743,0.61521 1.596761,1.33023 2.305418,1.91065 1.471659,1.22173 3.532851,1.4472 5.234933,0.56895 0.76735,-0.38913 1.578893,-0.72408 2.415804,-0.98929 1.834683,-0.58478 3.139916,-2.21387 3.311646,-4.13124 v -0.005 c 0.08043,-0.89997 0.178251,-1.99467 0.271724,-2.93814 0,-0.006 0.0021,-0.0148 0.0041,-0.0213 0.01739,-0.20435 0.177773,-0.36683 0.38211,-0.38639 0.471713,-0.0272 0.940579,-0.0411 1.409575,-0.0425 z m 0,13.04334 c -5.999674,0 -10.868975,4.86951 -10.868975,10.86944 0,5.99994 4.869301,10.86945 10.868975,10.86945 5.999674,0 10.868975,-4.86951 10.868975,-10.86945 0,-5.99993 -4.869301,-10.86944 -10.868975,-10.86944 z m -32.488029,0.051 c -3.18897,0.1739 -5.77698,2.63873 -6.10957,5.8126 -0.13477,1.15216 -0.267,2.41767 -0.37787,3.51984 -0.087,0.8565 -0.66863,1.58174 -1.48598,1.84695 -1.42167,0.45652 -2.80691,1.02671 -4.1438,1.69409 l -0.0128,0.004 c -0.76082,0.38695 -1.67853,0.29287 -2.33937,-0.24626 -0.0109,-0.009 -0.0189,-0.0189 -0.0297,-0.0255 -0.8543,-0.6739 -1.81988,-1.46283 -2.70027,-2.18238 -2.48682,-2.03042 -6.08324,-1.95022 -8.4744,0.19106 l -0.0297,0.0297 c -0.99125,0.92173 -1.9487,1.88081 -2.85735,2.88295 l -0.008,0.008 c -2.13032,2.37823 -2.21662,5.95191 -0.20804,8.43232 0.71953,0.90868 1.52053,1.89263 2.2205,2.75131 0.54344,0.66738 0.64385,1.58909 0.25474,2.35648 -0.68475,1.32824 -1.2541,2.71386 -1.72799,4.13124 -0.002,0.004 -0.002,0.008 -0.004,0.0128 -0.2652,0.81303 -0.98419,1.38852 -1.83414,1.47331 -0.013,0.002 -0.0252,0.004 -0.0382,0.004 -1.08036,0.12826 -2.3192,0.25419 -3.45175,0.3694 -3.19328,0.32174 -5.67874,2.92673 -5.85481,6.13105 -0.002,0.0152 -0.004,0.0252 -0.004,0.0382 -0.05,1.35217 -0.0504,2.70908 0.017,4.05905 0,0.004 0.002,0.008 0.004,0.0128 0.1739,3.1891 2.63862,5.777217 5.81235,6.109822 1.15212,0.134781 2.41331,0.262779 3.51542,0.373648 0.85648,0.08695 1.58168,0.672905 1.84688,1.490288 0.4565,1.421723 1.02668,2.802796 1.69404,4.139738 l 0.008,0.01283 c 0.38693,0.760861 0.28859,1.678612 -0.2505,2.339474 -0.009,0.01087 -0.0189,0.01891 -0.0255,0.02972 -0.67388,0.85434 -1.46275,1.824198 -2.18228,2.704623 -2.03033,2.48693 -1.9459,6.0835 0.1953,8.474778 l 0.0297,0.02972 c 0.92169,0.991293 1.8807,1.948805 2.88282,2.85749 l 0.008,0.0085 c 2.37813,2.130412 5.95165,2.216716 8.43195,0.208063 0.90865,-0.719557 1.88831,-1.520613 2.74696,-2.220605 0.66736,-0.543473 1.59327,-0.643885 2.36061,-0.254758 1.32819,0.684775 2.70948,1.254182 4.1268,1.728089 0.004,0.0022 0.009,0.0021 0.0128,0.0043 0.813,0.265214 1.39272,0.984228 1.4775,1.834219 0.002,0.01304 0.004,0.02517 0.004,0.03822 0.12826,1.080423 0.25419,2.319301 0.3694,3.451897 0.3217,3.193444 2.92236,5.678982 6.12652,5.855067 0.0152,0.0022 0.0294,0 0.0425,0 1.3521,0.05 2.70469,0.05039 4.05463,-0.01696 0.004,0 0.008,0.0022 0.0128,0 3.188959,-0.173815 5.781209,-2.638636 6.1138,-5.812492 0.134775,-1.152161 0.262747,-2.417692 0.37361,-3.519832 0.08695,-0.856512 0.668659,-1.577504 1.486006,-1.842718 1.421662,-0.456517 2.806912,-1.030967 4.143797,-1.698352 l 0.01282,-0.0043 c 0.760828,-0.386952 1.678539,-0.288628 2.339373,0.250497 0.01087,0.0087 0.01891,0.01478 0.02971,0.0213 0.854301,0.673906 1.819879,1.46281 2.700266,2.182367 2.486822,2.030413 6.083235,1.950219 8.474409,-0.191062 l 0.02972,-0.02972 c 0.991251,-0.921729 1.948698,-1.880783 2.857345,-2.882947 l 0.0085,-0.0085 c 2.130319,-2.378234 2.216619,-5.951913 0.208032,-8.432299 -0.719526,-0.908686 -1.520525,-1.892653 -2.220488,-2.75134 -0.543449,-0.667384 -0.643856,-1.58907 -0.254747,-2.356452 0.684746,-1.328247 1.258345,-2.709623 1.732232,-4.126999 0.0022,-0.0044 0.0021,-0.01261 0.0043,-0.01696 0.265203,-0.813035 0.979925,-1.388551 1.829879,-1.473332 0.01304,-0.0022 0.02517,-0.0043 0.03822,-0.0043 1.080376,-0.128259 2.323461,-0.25417 3.456008,-0.369387 3.193283,-0.321735 5.674474,-2.926755 5.850551,-6.131065 0.06739,-1.19998 -0.848649,-2.2233 -2.04641,-2.28851 -1.197761,-0.0652 -2.225292,0.85294 -2.29268,2.05075 -0.05869,1.06956 -0.885799,1.93574 -1.948785,2.04226 h -0.0042 c -1.149937,0.1174 -2.413325,0.24322 -3.51544,0.37365 -2.549861,0.26739 -4.706809,2.01265 -5.502418,4.453932 -0.399978,1.193443 -0.884256,2.372322 -1.469006,3.507093 -0.0022,0.0022 -0.0041,0.0063 -0.0041,0.0085 -1.171675,2.302148 -0.876779,5.079987 0.755742,7.08214 0.689071,0.845621 1.484289,1.811154 2.190771,2.704623 0.0065,0.0087 0.01043,0.01891 0.01696,0.02546 0.671702,0.82173 0.647051,2.010999 -0.05943,2.802295 -0.817347,0.902165 -1.677387,1.76172 -2.568643,2.589972 -0.797782,0.704341 -1.991044,0.729101 -2.814912,0.05519 -0.895604,-0.730427 -1.879507,-1.533635 -2.751199,-2.220584 -1.99337,-1.6152 -4.750351,-1.906066 -7.039356,-0.743036 -1.126027,0.563038 -2.304527,1.052402 -3.519678,1.439354 -0.0022,0.0022 -0.0085,0.0021 -0.01283,0.0043 -2.454214,0.79997 -4.205619,2.971315 -4.466475,5.540853 -0.108689,1.084771 -0.23677,2.329975 -0.369371,3.460396 v 0.03398 c -0.106516,1.054314 -0.964373,1.873175 -2.025183,1.93187 -1.21516,0.06087 -2.43192,0.06045 -3.64707,0.01696 -1.06298,-0.06519 -1.92291,-0.890164 -2.02943,-1.948826 -0.11739,-1.149987 -0.24745,-2.41343 -0.37787,-3.515593 -0.26738,-2.549972 -2.00831,-4.707013 -4.44948,-5.502657 -1.19341,-0.399995 -2.37647,-0.888556 -3.51119,-1.473331 -0.002,-0.0022 -0.006,-0.0043 -0.008,-0.0043 -2.30206,-1.171727 -5.07552,-0.872578 -7.07758,0.760014 -0.84561,0.689122 -1.81107,1.480113 -2.7045,2.186628 -0.009,0.0065 -0.0189,0.01478 -0.0255,0.0213 -0.8217,0.671732 -2.01092,0.642841 -2.80218,-0.06367 -0.90212,-0.817383 -1.76164,-1.67746 -2.58986,-2.568756 -0.70431,-0.797817 -0.72907,-1.986869 -0.0552,-2.810773 v -0.0043 c 0.7304,-0.895642 1.53357,-1.87961 2.22048,-2.75134 1.61514,-1.993456 1.90599,-4.746317 0.74301,-7.035423 -0.56301,-1.126075 -1.05235,-2.308866 -1.43929,-3.52407 -0.002,-0.0022 -0.002,-0.0041 -0.004,-0.0085 -0.79995,-2.454321 -2.97121,-4.210031 -5.54063,-4.470901 -1.08473,-0.1087 -2.32988,-0.23254 -3.46025,-0.36516 -0.0109,0 -0.0231,-0.004 -0.034,-0.004 -1.05429,-0.10651 -1.87735,-0.96441 -1.93604,-2.02528 -0.0609,-1.2152 -0.0605,-2.43201 -0.017,-3.64722 0.0652,-1.06303 0.89438,-1.92299 1.95302,-2.02951 1.14993,-0.1174 2.4133,-0.2432 3.51542,-0.37363 2.54985,-0.2674 4.70681,-2.01266 5.50242,-4.45394 0.39997,-1.19346 0.88427,-2.37231 1.469,-3.50708 0.002,-0.002 0.004,-0.006 0.004,-0.008 1.17167,-2.30215 0.87678,-5.07572 -0.75575,-7.07787 -0.68908,-0.84565 -1.48004,-1.8154 -2.18653,-2.70886 -0.006,-0.009 -0.0148,-0.0148 -0.0213,-0.0213 -0.6717,-0.82174 -0.64705,-2.01098 0.0594,-2.80228 0.81735,-0.90217 1.68163,-1.76598 2.57289,-2.59424 0.79778,-0.70433 1.98678,-0.72485 2.81065,-0.051 h 0.004 c 0.8956,0.73044 1.87527,1.5294 2.74696,2.21635 1.99337,1.61521 4.75035,1.90607 7.03936,0.74304 1.12602,-0.56304 2.30876,-1.0524 3.52391,-1.43936 0.002,-0.002 0.004,-0.002 0.008,-0.004 2.45422,-0.79998 4.20562,-2.97134 4.46647,-5.54088 0.10869,-1.08477 0.23677,-2.32997 0.36938,-3.46039 v -0.0297 c 0.10652,-1.05651 0.96862,-1.87959 2.02943,-1.93611 1.19776,-0.0674 2.11806,-1.09496 2.05067,-2.29277 -0.0652,-1.19782 -1.09066,-2.11816 -2.28841,-2.05076 z m 32.488029,4.29682 c 3.599804,0 6.521385,2.9217 6.521385,6.52166 0,3.59996 -2.921581,6.52167 -6.521385,6.52167 -3.599805,0 -6.521385,-2.92171 -6.521385,-6.52167 0,-3.59996 2.92158,-6.52166 6.521385,-6.52166 z m -30.433129,21.73889 c -8.39737,0 -15.21657,6.81951 -15.21657,15.21722 0,8.397733 6.8192,15.217225 15.21657,15.217225 8.39737,0 15.216564,-6.819492 15.216564,-15.217225 0,-0.69129 -0.0488,-1.37488 -0.1401,-2.04226 -0.158688,-1.18911 -1.252215,-2.0248 -2.441281,-1.86394 -1.189066,0.1587 -2.022542,1.25652 -1.863855,2.44563 0.06521,0.48043 0.09765,0.96493 0.09765,1.46057 0,5.99994 -4.869301,10.869445 -10.868978,10.869445 -5.99968,0 -10.86897,-4.869505 -10.86897,-10.869445 0,-5.99994 4.86929,-10.86944 10.86897,-10.86944 0.49345,0 0.97597,0.0346 1.45203,0.0977 1.18907,0.1587 2.282597,-0.67906 2.441284,-1.86817 0.158686,-1.18913 -0.674812,-2.2827 -1.863884,-2.44139 -0.66518,-0.0891 -1.34252,-0.13587 -2.02943,-0.13587 z"
         style="clip-rule:evenodd;fill-rule:evenodd;stroke-width:2.17384;stroke-linejoin:round;stroke-miterlimit:2" /></g></g><style
     type="text/css"
     id="style406">
	.st0{fill:none;}
</style></svg>
