<?xml version="1.0" encoding="UTF-8" standalone="no"?>
<!-- Created with Inkscape (http://www.inkscape.org/) -->

<svg
   width="26.458242mm"
   height="26.458387mm"
   viewBox="0 0 26.458242 26.458387"
   version="1.1"
   id="svg5"
   xml:space="preserve"
   inkscape:export-filename="pick_icon.svg"
   inkscape:export-xdpi="96"
   inkscape:export-ydpi="96"
   xmlns:inkscape="http://www.inkscape.org/namespaces/inkscape"
   xmlns:sodipodi="http://sodipodi.sourceforge.net/DTD/sodipodi-0.dtd"
   xmlns="http://www.w3.org/2000/svg"
   xmlns:svg="http://www.w3.org/2000/svg"><sodipodi:namedview
     id="namedview7"
     pagecolor="#ffffff"
     bordercolor="#000000"
     borderopacity="0.25"
     inkscape:showpageshadow="2"
     inkscape:pageopacity="0.0"
     inkscape:pagecheckerboard="0"
     inkscape:deskcolor="#d1d1d1"
     inkscape:document-units="mm"
     showgrid="false" /><defs
     id="defs2" /><g
     inkscape:label="Layer 1"
     inkscape:groupmode="layer"
     id="layer1"
     transform="translate(-1.0078745e-5)"><g
       id="g152"
       transform="matrix(0.93692962,0,0,0.94649267,-1.8684264,-1.9419348)"><path
         id="path347"
         d="m 14.236464,2.0517167 c -4.3034123,0 -7.8046946,2.8714566 -7.8046946,6.4014423 0,1.969173 1.0788529,3.794289 2.9602111,5.017926 0.1602059,0.844672 0.4188827,1.718116 1.0937825,2.643768 0.0025,0.0032 0.0061,0.0053 0.0082,0.0085 0.0014,0.0021 0.002,0.0044 0.0035,0.0062 0.20904,0.251011 0.380219,0.499368 0.523561,0.74692 H 5.6879423 c -0.00668,0 -0.012205,0.0031 -0.018527,0.0034 -0.026701,0.0011 -0.050871,0.0061 -0.076167,0.01238 -0.018971,0.0046 -0.038015,0.0074 -0.05558,0.01464 -0.022134,0.0084 -0.039689,0.02055 -0.059013,0.03265 -0.016864,0.01066 -0.034315,0.01968 -0.048719,0.03265 -0.014756,0.01326 -0.024774,0.02863 -0.036368,0.04391 -0.012648,0.01729 -0.024856,0.0336 -0.032938,0.05291 -0.00246,0.0055 -0.00785,0.0086 -0.0096,0.01407 l -3.3424181,9.284428 c -0.00491,0.01384 -0.00234,0.02698 -0.0048,0.04052 -0.00246,0.01412 -0.0096,0.02668 -0.0096,0.04109 v 3.268546 c 0,0.159367 0.1573952,0.288186 0.3513278,0.288186 h 23.781177 c 0.194283,0 0.351327,-0.128819 0.351327,-0.288186 v -3.268546 c 0,-0.0147 -0.0071,-0.02726 -0.0096,-0.04109 -0.0025,-0.01383 1.14e-4,-0.02755 -0.0049,-0.04109 L 23.121833,17.08354 c -0.0021,-0.0055 -0.0075,-0.0089 -0.0096,-0.01407 -0.0081,-0.01931 -0.02063,-0.03618 -0.03363,-0.05347 -0.0112,-0.01528 -0.02127,-0.03037 -0.03568,-0.04334 -0.01475,-0.01326 -0.03252,-0.02311 -0.05009,-0.03377 -0.01897,-0.01181 -0.03691,-0.02317 -0.05764,-0.03152 -0.01826,-0.0072 -0.03761,-0.01059 -0.05764,-0.0152 -0.02423,-0.0061 -0.04811,-0.01123 -0.07411,-0.01238 -0.0067,-2.88e-4 -0.01219,-0.0028 -0.01921,-0.0028 h -5.321382 c 0.143342,-0.247551 0.314521,-0.49676 0.523562,-0.747482 0.0014,-0.0018 0.002,-0.0036 0.0035,-0.0057 0.0025,-0.0032 0.0061,-0.0056 0.0082,-0.009 0.677009,-0.929111 0.935988,-1.80522 1.095842,-2.652774 0.944017,-0.616718 1.684479,-1.385261 2.186878,-2.247513 h 2.456551 c 0.194283,0 0.351328,-0.129107 0.351328,-0.288186 V 9.7989949 h 5.793478 c 0.194284,0 0.351328,-0.129107 0.351328,-0.2881861 0,-0.1590781 -0.157044,-0.2881851 -0.351328,-0.2881851 H 24.088712 V 7.6837551 h 5.793478 c 0.194284,0 0.351328,-0.129107 0.351328,-0.2881862 0,-0.1590781 -0.157044,-0.2881851 -0.351328,-0.2881851 h -5.79345 v -1.127445 c 0,-0.1590786 -0.157044,-0.288186 -0.351327,-0.288186 H 21.276059 C 20.016549,3.5407351 17.335172,2.0517167 14.236464,2.0517167 Z m 0,0.5763718 c 3.915896,0 7.101351,2.6129536 7.101351,5.8250705 0,0.8259409 -0.210374,1.62392 -0.603158,2.353894 -0.0029,0.0052 -0.0057,0.0095 -0.0082,0.01464 -0.354139,0.653893 -0.854579,1.252718 -1.486967,1.766265 0.112429,-0.722193 0.231091,-1.408254 0.574338,-2.082031 0.01157,-0.02276 0.01219,-0.04645 0.01647,-0.06979 0.0088,-0.0121 0.02214,-0.02108 0.02883,-0.03433 0.318303,-0.617005 0.480332,-1.2728369 0.480332,-1.9486327 0,-2.7605298 -2.737935,-5.0061046 -6.102949,-5.0061046 -3.365367,0 -6.102951,2.2455748 -6.102951,5.0061046 0,0.7184473 0.1816916,1.4119368 0.5393432,2.0606437 7.029e-4,0.0014 0.00174,0.0022 0.00274,0.0039 0.3400849,0.673491 0.4581318,1.358986 0.5709087,2.081469 -1.3512225,-1.090495 -2.1121006,-2.567095 -2.1121006,-4.1454885 0,-3.2124051 3.1861417,-5.8256333 7.1020387,-5.8256333 z m 0,1.3953379 c 2.9775,0 5.400292,1.9873597 5.400292,4.4297326 -3.51e-4,0.5985619 -0.142985,1.1788032 -0.424748,1.724051 -0.01194,0.02334 -0.01328,0.04757 -0.01784,0.07148 -0.0088,0.0121 -0.0218,0.02163 -0.02881,0.03546 -0.398405,0.782135 -0.521783,1.578507 -0.641585,2.348827 -0.1588,1.023348 -0.323535,2.081191 -1.128778,3.185806 -0.343598,0.414411 -0.595282,0.824325 -0.784998,1.232108 -7.03e-4,0.0014 -0.0014,0.0025 -0.0021,0.0039 -0.451807,0.974355 -0.542659,1.939722 -0.635409,2.944338 -0.11875,1.283866 -0.247297,2.611915 -1.128778,4.151114 -0.196743,0.03228 -0.399642,0.04954 -0.607275,0.04954 -0.203771,0 -0.402397,-0.01701 -0.594925,-0.04784 -0.882535,-1.540352 -1.010716,-2.868649 -1.129465,-4.152803 -0.09275,-1.004328 -0.18325,-1.969983 -0.63541,-2.944338 -7.03e-4,-0.0014 -0.0014,-0.0025 -0.0021,-0.0039 -0.189716,-0.408359 -0.442069,-0.818246 -0.78637,-1.233233 -0.80454,-1.10404 -0.968254,-2.162185 -1.1274054,-3.185244 -0.1194465,-0.770319 -0.243179,-1.566417 -0.641585,-2.348264 -0.00137,-0.0026 -0.00411,-0.0047 -0.00547,-0.0073 0,-2.89e-4 -3.346e-4,-5.5e-4 -6.867e-4,-0.0011 C 8.9964334,9.7019289 8.8360795,9.0888928 8.8360795,8.4531546 c 0,-2.4426609 2.4227925,-4.4297326 5.4002955,-4.4297326 z m 7.335341,2.2446983 h 1.81428 v 4.3706333 h -1.810849 c 0.30425,-0.6899169 0.465235,-1.4270941 0.465235,-2.185599 0,-0.7671493 -0.165822,-1.502611 -0.468666,-2.1850343 z m -4.128788,1.897412 c -0.112728,0.00299 -0.221804,0.050031 -0.28614,0.1339607 -0.112779,0.1466863 -2.759846,3.6522046 -2.759846,8.7288826 0,0.159366 0.157395,0.288186 0.351328,0.288186 0.193933,0 0.351327,-0.12882 0.351327,-0.288186 0,-4.902614 2.625413,-8.386977 2.652114,-8.4215594 0.102589,-0.1348699 0.0536,-0.3126542 -0.110476,-0.3973808 -0.0614,-0.03167 -0.130671,-0.045711 -0.198308,-0.043907 z m -7.5295338,5.629e-4 c -0.112492,-0.00588 -0.2261124,0.032175 -0.3005497,0.1108834 -0.1184015,0.1259369 -0.090397,0.3072922 0.063126,0.4046993 2.8907225,1.8311317 2.9090985,6.7681057 2.9087485,6.8179617 -3.52e-4,0.159078 0.156022,0.288172 0.349954,0.288749 h 0.0014 c 0.193582,0 0.350976,-0.12827 0.351328,-0.287061 0.0011,-0.21441 -0.01675,-5.270937 -3.181851,-7.2761325 -0.05758,-0.036423 -0.1246409,-0.055567 -0.1921324,-0.059103 z M 3.4729301,12.683076 c -0.3843524,0 -0.7367953,0.115811 -0.992913,0.325898 -0.2905478,0.23833 -0.4297729,0.568767 -0.391127,0.929288 0.036538,0.341788 0.2296922,0.67191 0.544833,0.930411 0.5828522,0.478101 2.6329553,0.918859 2.8648317,0.967563 0.028809,0.0061 0.057985,0.009 0.087146,0.009 0.00175,-2.89e-4 0.00509,0 0.00755,0 0.1939327,0 0.3513279,-0.129108 0.3513279,-0.288186 0,-0.04525 -0.012845,-0.08804 -0.035682,-0.126082 C 5.7978753,15.08371 5.2924399,13.582883 4.7471798,13.135619 4.3969062,12.848009 3.9324662,12.683076 3.4729301,12.683076 Z m 21.5256939,5.63e-4 c -0.460239,-2.88e-4 -0.924328,0.164658 -1.27425,0.45198 -0.582501,0.4781 -1.11916,2.159751 -1.178183,2.349952 -0.03092,0.09856 0.0041,0.203195 0.09195,0.275241 0.0664,0.05475 0.156352,0.08443 0.248401,0.08443 0.02916,0 0.05834,-0.003 0.08715,-0.009 0.231525,-0.0487 2.281645,-0.489475 2.864146,-0.966998 0.315491,-0.258504 0.508981,-0.589188 0.545519,-0.930976 0.03795,-0.360521 -0.100586,-0.690395 -0.391128,-0.928724 -0.256118,-0.210089 -0.609246,-0.325899 -0.993598,-0.325899 z M 3.4729301,13.259448 c 0.2747381,0 0.5578704,0.103567 0.7774499,0.283683 0.2634956,0.216428 0.5980756,0.96654 0.8296004,1.598532 -0.7708124,-0.189914 -1.6859624,-0.4638 -1.9494579,-0.679939 -0.1985,-0.162825 -0.3195875,-0.36664 -0.3417212,-0.573557 -0.020026,-0.188186 0.046782,-0.35583 0.1880152,-0.47168 0.1584489,-0.129972 0.3573391,-0.157039 0.4961136,-0.157039 z m 21.5250069,0 c 0.139126,0 0.338352,0.02735 0.4968,0.157039 0.141586,0.116139 0.208393,0.283782 0.188016,0.47168 -0.02213,0.206917 -0.143206,0.409881 -0.342408,0.572994 -0.263847,0.21614 -1.178311,0.490312 -1.948771,0.679939 0.231173,-0.631992 0.565066,-1.381816 0.828913,-1.598532 0.21958,-0.180116 0.503064,-0.28312 0.77745,-0.28312 z M 5.9500659,17.453341 h 5.3543191 c 0.250145,0.606343 0.359891,1.218393 0.43367,1.863641 -0.827025,0.593085 -1.302384,1.435716 -1.302384,2.342636 0,1.450727 1.216635,2.669435 2.855226,3.015258 0.0039,0.0011 0.0075,0.002 0.0117,0.0028 0.29933,0.06254 0.610695,0.09906 0.933214,0.09906 0.317249,0 0.624041,-0.03573 0.918805,-0.09625 0.01897,-0.0029 0.038,-0.0064 0.05627,-0.01183 1.623484,-0.354468 2.825033,-1.567273 2.825033,-3.009066 0,-0.90231 -0.471758,-1.741972 -1.291405,-2.334193 0.07343,-0.648419 0.183843,-1.263148 0.435043,-1.872084 h 5.342654 l 3.134503,8.707493 H 2.8155626 Z m 5.8641561,2.622381 c 0.104343,1.129399 0.226871,2.388368 0.911257,3.799325 -0.945423,-0.435448 -1.587152,-1.264705 -1.587152,-2.215429 0,-0.585305 0.240952,-1.13865 0.675895,-1.583896 z m 4.854775,0.01181 c 0.427214,0.443229 0.664229,0.992536 0.664229,1.572077 0,0.945249 -0.634394,1.770084 -1.570682,2.207549 0.678764,-1.4026 0.802461,-2.655413 0.906453,-3.779626 z M 2.6968521,26.737207 H 25.775387 v 2.692174 H 2.6968521 Z"
         style="stroke-width:0.318195" /></g></g></svg>
