<?xml version="1.0" encoding="UTF-8" standalone="no"?>
<!-- Created with Inkscape (http://www.inkscape.org/) -->

<svg
   width="26.458332mm"
   height="26.458334mm"
   viewBox="0 0 26.458332 26.458334"
   version="1.1"
   id="svg5"
   inkscape:version="1.2.2 (732a01da63, 2022-12-09)"
   sodipodi:docname="mining game svgs.svg"
   xml:space="preserve"
   inkscape:export-filename="ingot_icon.svg"
   inkscape:export-xdpi="96"
   inkscape:export-ydpi="96"
   xmlns:inkscape="http://www.inkscape.org/namespaces/inkscape"
   xmlns:sodipodi="http://sodipodi.sourceforge.net/DTD/sodipodi-0.dtd"
   xmlns="http://www.w3.org/2000/svg"
   xmlns:svg="http://www.w3.org/2000/svg"><sodipodi:namedview
     id="namedview7"
     pagecolor="#ffffff"
     bordercolor="#000000"
     borderopacity="0.25"
     inkscape:showpageshadow="2"
     inkscape:pageopacity="0.0"
     inkscape:pagecheckerboard="0"
     inkscape:deskcolor="#d1d1d1"
     inkscape:document-units="mm"
     showgrid="true"
     inkscape:zoom="4.7572176"
     inkscape:cx="54.338486"
     inkscape:cy="57.491589"
     inkscape:window-width="1920"
     inkscape:window-height="1051"
     inkscape:window-x="-9"
     inkscape:window-y="-9"
     inkscape:window-maximized="1"
     inkscape:current-layer="layer1"><inkscape:grid
       type="xygrid"
       id="grid132" /></sodipodi:namedview><defs
     id="defs2" /><g
     inkscape:label="Layer 1"
     inkscape:groupmode="layer"
     id="layer1"><g
       id="g6426"
       transform="matrix(0.05400306,0,0,0.05177227,-0.00316424,-1.1389899)"><path
         id="path6381"
         d="m 245.02427,21.999999 c -133.51643,0 -244.96567628,116.250941 -244.96567628,255.520661 0,139.26862 111.44819628,255.53156 244.96567628,255.53156 133.51643,0 244.9757,-116.26185 244.9757,-255.53156 0,-139.26863 -111.45823,-255.520661 -244.9757,-255.520661 z m 0,34.9443 c 116.60506,0 211.47611,98.947681 211.47611,220.576361 0,121.62868 -94.87105,220.58725 -211.47611,220.58725 -116.60506,0 -211.466096,-98.95857 -211.466096,-220.58725 0,-121.62868 94.861036,-220.576361 211.466096,-220.576361 z m 2.00356,35.26039 c -5.15708,0.359673 -10.26455,3.133447 -13.6643,7.662459 L 148.77309,212.5587 c -8.41067,11.20814 -0.31972,28.24101 13.19346,28.24101 h 28.91142 v 90.33636 c 0,13.71644 10.01728,18.69291 16.74979,18.69291 h 74.64275 c 6.73146,0 16.74456,-4.97866 16.74979,-18.69291 l 0.0105,-90.33636 h 29.0717 c 13.14887,0 21.45959,-16.54331 13.47397,-27.83772 L 260.98265,98.984275 c -3.60023,-5.09193 -8.79774,-7.139258 -13.95482,-6.779586 z m 0.0802,46.018351 47.82507,67.63237 h -12.65251 c -9.25026,0 -16.74979,7.82336 -16.74979,17.47216 0,0.80587 -0.008,60.98041 -0.0105,91.55711 h -41.14317 c 0,-30.79728 0.001,-91.55602 0,-91.55711 0,-9.6488 -7.49953,-17.47216 -16.74979,-17.47216 H 196.3473 c 15.87286,-21.14958 37.11415,-49.45298 50.76027,-67.63237 z M 194.50448,371.552 v 34.94429 H 295.5542 V 371.552 Z m 13.19347,56.66731 v 34.9443 h 74.66278 v -34.9443 z"
         style="stroke-width:1.06919" /></g></g></svg>
